PathFileType        4      (X/Y/Z)      C:\Users\pc\Desktop\IMUTRC\Sujet_05\Sujet_05_velo_100.trc         
DataRate	CameraRate	NumFrames	NumMarkers	Units	OrigDataRate	OrigDataStartFrame	OrigNumFrames
60.0	60.0	4	64	mm	60.0	1	963
Frame#	Time	pHipOrigin			pRightASI			pLeftASI			pRightCSI			pLeftCSI			pRightIschialTub			pLeftIschialTub			pSacrum			pL5SpinalProcess			pL3SpinalProcess			pT12SpinalProcess			pIJ			pT4SpinalProcess			pT8SpinalProcess			pPX			pC7SpinalProcess			pTopOfHead			pRightAuricularis			pLeftAuricularis			pBackOfHead			pRightAcromion			pLeftAcromion			pRightArmLatEpicondyle			pRightArmMedEpicondyle			pLeftArmLatEpicondyle			pLeftArmMedEpicondyle			pRightUlnarStyloid			pRightRadialStyloid			pRightOlecranon			pLeftUlnarStyloid			pLeftRadialStyloid			pLeftOlecranon			pRightTopOfHand			pRightPinky			pRightBallHand			pLeftTopOfHand			pLeftPinky			pLeftBallHand			pRightGreaterTrochanter			pRightKneeLatEpicondyle			pRightKneeMedEpicondyle			pRightPatella			pLeftGreaterTrochanter			pLeftKneeLatEpicondyle			pLeftKneeMedEpicondyle			pLeftPatella			pRightTibialTub			pRightLatMalleolus			pRightMedMalleolus			pLeftTibialTub			pLeftLatMalleolus			pLeftMedMalleolus			pRightHeelFoot			pRightFirstMetatarsal			pRightFifthMetatarsal			pRightPivotFoot			pRightHeelCenter			pRightToe			pLeftHeelFoot			pLeftFirstMetatarsal			pLeftFifthMetatarsal			pLeftPivotFoot			pLeftHeelCenter			pLeftToe			
		X1	Y1	Z1	X2	Y2	Z2	X3	Y3	Z3	X4	Y4	Z4	X5	Y5	Z5	X6	Y6	Z6	X7	Y7	Z7	X8	Y8	Z8	X9	Y9	Z9	X10	Y10	Z10	X11	Y11	Z11	X12	Y12	Z12	X13	Y13	Z13	X14	Y14	Z14	X15	Y15	Z15	X16	Y16	Z16	X17	Y17	Z17	X18	Y18	Z18	X19	Y19	Z19	X20	Y20	Z20	X21	Y21	Z21	X22	Y22	Z22	X23	Y23	Z23	X24	Y24	Z24	X25	Y25	Z25	X26	Y26	Z26	X27	Y27	Z27	X28	Y28	Z28	X29	Y29	Z29	X30	Y30	Z30	X31	Y31	Z31	X32	Y32	Z32	X33	Y33	Z33	X34	Y34	Z34	X35	Y35	Z35	X36	Y36	Z36	X37	Y37	Z37	X38	Y38	Z38	X39	Y39	Z39	X40	Y40	Z40	X41	Y41	Z41	X42	Y42	Z42	X43	Y43	Z43	X44	Y44	Z44	X45	Y45	Z45	X46	Y46	Z46	X47	Y47	Z47	X48	Y48	Z48	X49	Y49	Z49	X50	Y50	Z50	X51	Y51	Z51	X52	Y52	Z52	X53	Y53	Z53	X54	Y54	Z54	X55	Y55	Z55	X56	Y56	Z56	X57	Y57	Z57	X58	Y58	Z58	X59	Y59	Z59	X60	Y60	Z60	X61	Y61	Z61	X62	Y62	Z62	X63	Y63	Z63	X64	Y64	Z64	
1	0.0	0.0	1249.9765	7.653898598672058E-14	77.92546000000002	1337.69217	119.63285000000009	45.89509999999999	1347.82191	-128.00827999999993	34.01104000000001	1400.62108	106.67357000000008	7.356799999999994	1409.0531	-99.31676999999992	-44.87647	1194.68734	56.02484000000007	-58.23188	1198.87506	-47.02690999999992	-61.85369	1269.44372	8.828160000000082	-26.14493	1370.06208	6.168390000000085	33.33195	1474.86815	2.942720000000088	95.75155	1565.80948	-0.8488599999999099	357.314	1582.8433	-3.338849999999925	249.16908	1693.87435	-7.9792999999999115	171.69634	1644.07449	-5.14975999999991	254.37542	1510.46373	0.6790900000000769	299.64803	1724.88608	-7.922709999999913	571.90613	1773.21459	-64.90958999999991	496.01793	1733.9972	31.521050000000074	455.44236	1740.16559	-108.99378999999993	457.47963	1791.04067	-31.06831999999992	296.42235	1658.56172	190.82401000000007	294.32849	1649.79016	-200.04829999999993	374.17804	1407.8647	176.56314000000006	360.87922	1404.46925	120.87784000000006	399.81365	1421.3333	-199.76534999999996	383.91165	1410.41128	-145.77776999999995	476.43753	1190.83917	156.64320000000006	519.33332	1216.24842	158.73706000000007	343.50586	1398.97995	149.79572000000005	509.82607	1211.49479	-224.89163999999994	547.68529	1240.69562	-239.26568999999995	370.10351	1406.73288	-166.65975999999995	560.41821	1128.13662	308.53277	520.069	1125.30708	232.30503000000002	511.41062	1170.12695	175.94064000000006	630.98687	1173.63558	-370.38646	574.79226	1158.97858	-306.5521	549.26983	1196.10211	-249.67838999999995	12.732920000000009	1212.6832	147.4755000000001	262.01518	950.66802	159.92546000000002	285.33057	962.15595	94.44996000000005	298.96894	984.56588	138.64734000000004	-12.39337000000001	1230.56588	-152.0593499999999	282.0483	1036.06347	-232.19184999999996	310.7964	1042.96754	-168.24429999999998	313.62594	1073.97927	-209.10281999999998	325.05727	930.6349	134.00690000000003	281.70876	557.07935	108.59765000000002	294.83781	564.26638	50.87508000000001	314.87094	991.58314	-204.80192999999997	43.40510999999999	735.50999	-151.83297999999994	61.34436999999999	735.28363	-94.90268999999996	236.60593	483.62456	71.58730000000001	399.30434	459.5169	46.008280000000006	392.57004	455.72532	124.04693	417.92269	453.971	85.6784	275.48377	480.05934	74.75638000000001	497.31952	440.72877	91.84679	-37.915800000000004	720.00412	-105.48515999999995	64.11732	598.27742	-55.79847999999997	52.006899999999995	581.80951	-131.51689999999996	71.36094	572.35885	-90.82815999999997	-12.563150000000007	690.23739	-103.05175999999996	119.01035	507.50585	-84.32021999999999	
2	0.017	0.0	1249.9765	7.653898598672058E-14	77.69910000000002	1336.2774	120.76466000000009	45.95168999999999	1349.40645	-126.76327999999991	33.72809000000001	1399.37609	108.54106000000009	7.356799999999994	1410.24151	-97.39267999999991	-44.93306	1193.95166	55.289160000000074	-58.1187	1199.38437	-47.705999999999925	-61.85369	1269.27395	8.941340000000082	-26.25811	1369.8923	7.526570000000086	32.82264	1474.86815	4.7536200000000886	94.78951	1566.09244	0.8488600000000901	356.23878	1584.48443	-4.244309999999925	247.41476	1694.89299	-7.809519999999911	170.28157	1644.69699	-4.0745299999999105	253.80952	1511.59554	0.9620400000000771	297.78053	1726.24426	-8.262249999999911	569.24636	1774.45958	-69.38025999999992	494.88612	1735.58174	28.351970000000076	452.04692	1741.46717	-111.54036999999991	455.44236	1792.56862	-33.78467999999992	297.04485	1660.65558	190.71083000000007	289.97101	1650.52584	-200.4444399999999	372.5935	1408.4872	178.82677000000007	359.63422	1404.92198	123.08488000000006	396.30503	1421.72943	-198.57693999999995	381.30848	1411.5431	-144.13663999999994	475.30572	1191.63144	159.07660000000007	518.14491	1217.09728	161.22705000000005	342.0345	1399.54586	152.00276000000005	508.24153	1212.79638	-222.11869999999993	545.87438	1242.16698	-236.77569999999994	367.1042	1407.41197	-165.18839999999994	559.45616	1129.04207	310.96618	519.10696	1126.15594	234.79503000000003	510.33539	1170.97582	178.37405000000007	629.85506	1174.42785	-367.1042	573.54726	1160.0538	-303.32642	547.68529	1197.46029	-246.79225999999994	10.922010000000009	1210.36298	146.7964100000001	243.17046	932.95512	152.34230000000002	266.7688	944.21668	86.92339000000004	282.0483	964.81571	131.40372000000002	-10.073150000000009	1232.20701	-152.1159399999999	296.02622	1055.19114	-229.19253999999998	323.35955	1063.22703	-164.73567999999997	325.05727	1094.63489	-205.36782999999997	305.36369	913.4879	127.55555000000004	259.12905	539.81917	111.59696000000001	272.76742	545.30847	53.81780000000002	326.64181	1012.0124	-202.70806999999996	54.723259999999996	755.54311	-154.43615999999994	73.00207	753.7888	-97.67563999999996	211.02691	468.34505	71.24776000000001	372.98964	438.18218	47.59282000000001	364.78398	432.24015	125.34851	390.64595	430.65561	87.37612	249.6218	463.02552	74.92615000000002	469.19391	413.96134	94.16701	-25.579020000000007	734.88749	-107.57901999999996	82.33954	617.23532	-60.552099999999975	70.17252999999998	601.22014	-136.38370999999998	90.31884	592.16562	-96.03449999999995	1.0752199999999936	706.25257	-105.82469999999996	140.91097	529.57625	-90.94133999999998	
3	0.033	0.0	1249.9765	7.653898598672058E-14	77.47274000000002	1334.86263	121.89648000000008	46.00827999999999	1350.9344	-125.51828999999991	33.445130000000006	1398.0745	110.35196000000009	7.300209999999994	1411.42992	-95.46859999999991	-44.93306	1193.27257	54.55348000000007	-58.00552	1199.95028	-48.38508999999993	-61.91028	1269.10418	9.111110000000082	-26.42788	1369.72253	8.941340000000086	32.25673	1474.92474	6.507940000000088	93.82746	1566.37539	2.4899900000000903	355.16355	1586.18215	-5.093169999999924	245.71704	1695.96821	-7.5831599999999115	168.8668	1645.37608	-2.9993099999999093	253.13043	1512.67077	1.301590000000077	295.96963	1727.65903	-8.65837999999991	566.5866	1775.64799	-73.85092999999992	493.69771	1737.16628	25.182880000000075	448.65147	1742.82535	-114.03035999999992	453.3485	1794.09657	-36.44443999999992	297.72394	1662.74944	190.59765000000007	285.61352	1651.26152	-200.78397999999993	370.95237	1409.1097	181.09040000000005	358.33263	1405.48789	125.23533000000006	392.85299	1422.18216	-197.33194999999995	378.7053	1412.7315	-142.60868999999994	474.23049	1192.36712	161.51000000000005	517.0131	1217.94614	163.71704000000005	340.61973	1400.05518	154.15321000000006	506.65699	1214.15456	-219.34574999999995	544.06348	1243.63834	-234.28570999999994	364.16148	1408.09106	-163.71703999999994	558.55071	1130.00411	313.39958	518.14491	1127.0048	237.22843000000003	509.26017	1171.76809	180.86404000000005	628.72324	1175.22012	-363.82194	572.30226	1161.07243	-300.10075	546.15734	1198.81847	-243.90613999999994	8.997930000000009	1208.21253	146.0607300000001	223.25051	916.60039	144.58937000000006	247.07522	927.579	79.22705000000005	263.93926	946.36713	123.93374000000004	-7.752930000000009	1234.01791	-152.1725299999999	308.87232	1075.05449	-225.85368999999997	334.79088	1084.05242	-160.94409999999996	335.3002	1115.85642	-201.23670999999996	285.7267	896.45408	121.04762000000004	236.43616	522.84195	114.59627000000002	250.52725	526.74671	56.76052000000002	338.41269	1032.49825	-200.67079999999999	65.92821999999998	775.74601	-157.09591999999995	84.60317	772.52034	-100.44857999999996	185.61766	453.23532	70.90821000000001	346.56176	417.01724	48.95100000000001	336.71497	409.03795	126.36715000000001	363.19944	407.51	88.79089	223.9296	446.16148	75.03934000000001	440.89854	387.25051	96.37405	-13.072460000000007	749.77086	-109.72946999999996	100.50517	636.47617	-65.41890999999995	88.33815999999999	620.97031	-141.30709999999996	109.27674	612.25533	-101.29743999999995	14.883369999999992	722.38093	-108.65423999999996	162.755	551.75982	-97.56244999999998	
4	0.05	0.0	1249.9765	7.653898598672058E-14	77.35956000000002	1333.50445	122.91511000000008	46.29122999999999	1352.23599	-124.38646999999992	33.445130000000006	1396.88609	111.99310000000008	7.639749999999995	1412.44855	-93.71427999999992	-45.10283	1192.70666	53.87439000000007	-58.00552	1200.51619	-49.00758999999993	-61.91028	1269.04759	9.224290000000082	-26.3147	1369.66594	10.129740000000085	32.25673	1474.86815	8.092480000000089	93.65769	1566.43198	4.017940000000091	354.8806	1586.80465	-5.659079999999925	245.15113	1696.36435	-7.243619999999911	168.47067	1645.54585	-1.9806799999999094	253.13043	1513.1235	1.697720000000077	295.34713	1728.16835	-8.771569999999912	565.11524	1775.93094	-77.64250999999992	493.64112	1737.67559	22.523120000000073	446.55761	1743.22149	-116.01103999999991	452.49964	1794.60589	-38.59488999999992	299.13871	1663.76807	190.59765000000007	283.06694	1651.26152	-200.78397999999993	370.32987	1409.1097	182.90131000000005	357.71014	1405.20493	127.10283000000005	390.87232	1422.01239	-196.08694999999994	377.29054	1413.07105	-141.13732999999993	473.72118	1192.31053	163.66045000000005	516.50378	1217.83296	165.86749000000006	340.05382	1399.94199	156.02070000000006	505.86472	1214.4941	-216.85575999999995	543.10144	1244.09107	-231.96548999999993	362.46376	1408.09106	-162.30226999999994	558.15458	1129.94752	315.55003	517.69219	1126.94821	239.37888000000004	508.80744	1171.7115	183.01449000000005	628.32711	1175.05035	-360.82263	571.79295	1161.18562	-297.15803	545.42166	1199.15801	-241.30295999999996	7.300210000000009	1206.51481	145.5514100000001	206.16011	904.26361	138.70393000000007	230.21117	914.95926	73.34161000000005	248.20703	932.16285	118.21808000000004	-5.54589000000001	1236.22495	-152.3422999999999	319.73774	1094.12558	-222.91096999999996	344.12836	1103.51964	-157.49205999999998	343.67563	1135.88955	-197.33194999999998	268.97584	882.19321	116.01104000000004	212.72463	509.48653	116.06763000000001	227.04209	512.0897	58.17529000000001	349.61766	1051.90888	-198.46375999999998	81.32090999999998	790.00688	-159.86886999999993	100.10904	785.87576	-103.39129999999996	159.0766	442.48308	69.83299000000001	318.49275	399.64388	48.89441	307.28778	390.13664	125.91442000000002	334.16838	388.38232	88.62112000000002	196.93581	433.59833	74.24707000000001	410.84885	364.38784	96.82677	4.414079999999993	758.88197	-112.16286999999996	124.38647	651.24636	-70.68184999999997	112.33263999999998	636.3064	-146.68322999999998	134.12008	628.10074	-107.01310999999997	33.841269999999994	733.02	-111.76672999999995	190.71083	570.60454	-104.63629999999999	
